<?xml version="1.0" standalone="no"?>
<!DOCTYPE svg PUBLIC "-//W3C//DTD SVG 20010904//EN"
 "http://www.w3.org/TR/2001/REC-SVG-20010904/DTD/svg10.dtd">
<svg version="1.0" xmlns="http://www.w3.org/2000/svg"
 width="512.000000pt" height="512.000000pt" viewBox="0 0 512.000000 512.000000"
 preserveAspectRatio="xMidYMid meet">

<g transform="translate(0.000000,512.000000) scale(0.100000,-0.100000)"
fill="#9f1127" stroke="none">
<path d="M4645 5101 c-16 -10 -375 -365 -796 -787 l-767 -769 -46 -140 c-25
-77 -46 -152 -46 -166 0 -15 10 -39 21 -54 l22 -27 -97 -97 -96 -96 62 -63 63
-62 96 96 97 97 27 -22 c15 -11 39 -21 54 -21 14 0 89 21 166 46 l140 46 777
776 c428 427 782 789 789 804 6 15 9 38 6 50 -4 13 -93 110 -200 216 -207 206
-214 210 -272 173z m160 -301 l110 -110 -450 -450 -450 -450 -112 112 -113
113 447 447 c247 247 450 448 453 448 3 0 55 -50 115 -110z m-1087 -1307
l-173 -173 -112 112 -113 113 172 172 173 173 112 -112 113 -113 -172 -172z
m-403 -183 c49 -49 87 -91 84 -93 -2 -2 -33 -14 -69 -26 l-65 -21 -47 47 -48
48 22 68 c12 37 25 67 28 67 3 0 46 -40 95 -90z"/>
<path d="M264 4941 c-95 -23 -195 -107 -237 -199 l-22 -47 0 -1875 0 -1875 28
-60 c50 -106 130 -169 247 -194 41 -9 355 -11 1210 -9 l1155 3 3 83 3 82
-1163 0 c-1233 1 -1208 0 -1260 47 -28 24 -58 91 -58 128 0 45 34 109 71 136
32 23 44 24 211 29 168 5 179 6 200 28 l23 23 5 1512 5 1512 1492 3 1493 2 0
85 0 85 -1495 0 -1495 0 0 224 c0 123 -3 232 -6 241 -14 37 -57 45 -221 44
-87 -1 -172 -4 -189 -8z m246 -1864 l0 -1704 -118 -6 c-82 -4 -135 -12 -170
-25 l-52 -20 0 1659 c0 1809 -4 1695 57 1752 40 38 71 45 186 46 l97 1 0
-1703z"/>
<path d="M904 4086 c-46 -20 -55 -54 -52 -201 l3 -130 82 -3 82 -3 3 88 3 88
83 3 82 3 0 84 0 85 -127 0 c-84 -1 -139 -5 -159 -14z"/>
<path d="M4440 3245 l0 -595 85 0 85 0 0 595 0 595 -85 0 -85 0 0 -595z"/>
<path d="M1922 3573 c-19 -7 -693 -851 -715 -894 -16 -34 -17 -72 -15 -562 l3
-525 24 -26 24 -26 1129 0 1128 0 0 85 0 85 -385 0 -385 0 0 425 0 425 600 0
600 0 0 -255 0 -255 86 0 85 0 -3 313 -3 313 -133 167 c-74 92 -138 167 -144
167 -8 0 -57 -37 -122 -91 -5 -4 20 -43 55 -86 34 -43 67 -84 72 -90 8 -10
-107 -13 -564 -13 l-574 0 -265 332 c-146 182 -266 335 -268 340 -2 4 165 8
372 8 l376 0 0 85 0 85 -482 -1 c-266 0 -489 -3 -496 -6z m297 -531 c134 -167
241 -306 238 -308 -2 -2 -227 -3 -500 -2 l-496 3 250 314 c138 172 254 309
258 305 5 -5 117 -145 250 -312z m341 -907 l0 -425 -130 0 -130 0 0 314 c0
294 -1 315 -19 337 l-19 24 -291 3 -292 3 -29 -30 -30 -29 0 -311 0 -311 -125
0 -125 0 0 425 0 425 595 0 595 0 0 -425z m-430 -170 l0 -255 -170 0 -170 0 0
255 0 255 170 0 170 0 0 -255z"/>
<path d="M5005 2810 c-11 -4 -623 -612 -1359 -1349 -1294 -1294 -1340 -1341
-1340 -1377 0 -28 7 -42 28 -60 l27 -24 1350 0 1351 0 29 29 29 29 0 1351 0
1350 -22 25 c-26 29 -64 39 -93 26z m-55 -1465 l0 -1175 -1177 0 -1178 0 1175
1175 c646 646 1176 1175 1177 1175 2 0 3 -529 3 -1175z"/>
<path d="M4500 1533 c-24 -8 -900 -885 -911 -911 -13 -33 13 -89 47 -102 17
-7 187 -10 475 -8 l448 3 23 23 23 23 3 437 c2 240 0 452 -3 470 -8 43 -66 79
-105 65z m-60 -573 l0 -280 -282 0 -283 0 280 280 c154 154 281 280 282 280 2
0 3 -126 3 -280z"/>
<path d="M3100 2361 l-30 -29 0 -192 c0 -193 4 -220 39 -247 11 -9 75 -12 219
-13 272 0 252 -20 252 253 0 274 22 251 -244 255 l-206 3 -30 -30z m310 -226
l0 -85 -85 0 -85 0 0 85 0 85 85 0 85 0 0 -85z"/>
<path d="M857 1533 c-4 -3 -7 -64 -7 -135 0 -198 10 -208 223 -208 l117 0 0
90 0 90 -85 0 -85 0 0 85 0 85 -78 0 c-43 0 -82 -3 -85 -7z"/>
</g>
</svg>
