<?xml version="1.0" encoding="UTF-8"?>
<!DOCTYPE svg PUBLIC "-//W3C//DTD SVG 1.1//EN" "http://www.w3.org/Graphics/SVG/1.1/DTD/svg11.dtd">
<svg xmlns="http://www.w3.org/2000/svg" version="1.1" width="512px" height="512px" style="shape-rendering:geometricPrecision; text-rendering:geometricPrecision; image-rendering:optimizeQuality; fill-rule:evenodd; clip-rule:evenodd" xmlns:xlink="http://www.w3.org/1999/xlink">
  <g>
    <path style="opacity:0.975" fill="#9f1127" d="M 137.5,7.5 C 187.124,3.71271 221.957,24.3794 242,69.5C 244.131,75.3565 245.631,81.3565 246.5,87.5C 254.415,86.8731 259.915,90.2064 263,97.5C 263.667,106.833 263.667,116.167 263,125.5C 260.186,132.49 255.019,135.823 247.5,135.5C 247.667,151.503 247.5,167.503 247,183.5C 241.578,199.982 230.078,208.315 212.5,208.5C 207.482,219.501 199.148,226.501 187.5,229.5C 187.792,233.207 188.792,236.707 190.5,240C 219.294,248.312 243.461,263.812 263,286.5C 263.5,273.504 263.667,260.504 263.5,247.5C 274.167,247.5 284.833,247.5 295.5,247.5C 295.5,215.5 295.5,183.5 295.5,151.5C 306.167,151.5 316.833,151.5 327.5,151.5C 327.5,140.833 327.5,130.167 327.5,119.5C 332.833,119.5 338.167,119.5 343.5,119.5C 343.5,130.167 343.5,140.833 343.5,151.5C 348.833,151.5 354.167,151.5 359.5,151.5C 359.5,135.5 359.5,119.5 359.5,103.5C 364.833,103.5 370.167,103.5 375.5,103.5C 375.5,119.5 375.5,135.5 375.5,151.5C 380.833,151.5 386.167,151.5 391.5,151.5C 391.5,140.833 391.5,130.167 391.5,119.5C 396.833,119.5 402.167,119.5 407.5,119.5C 407.5,130.167 407.5,140.833 407.5,151.5C 418.167,151.5 428.833,151.5 439.5,151.5C 439.5,194.167 439.5,236.833 439.5,279.5C 444.833,279.5 450.167,279.5 455.5,279.5C 455.167,311.507 455.5,343.507 456.5,375.5C 467.323,351.221 477.49,326.554 487,301.5C 487.561,300.978 488.228,300.645 489,300.5C 493.964,302.21 498.798,304.21 503.5,306.5C 494.203,329.42 485.203,352.42 476.5,375.5C 486.167,375.5 495.833,375.5 505.5,375.5C 502.148,409.735 483.815,430.902 450.5,439C 433.5,439.333 416.5,439.667 399.5,440C 390.846,465.613 373.179,475.613 346.5,470C 332.229,464.73 323.229,454.73 319.5,440C 311.507,439.5 303.507,439.334 295.5,439.5C 295.5,460.833 295.5,482.167 295.5,503.5C 215.5,503.5 135.5,503.5 55.5,503.5C 55.6666,489.829 55.4999,476.163 55,462.5C 17.0472,439.578 1.38049,405.911 8,361.5C 15.5009,310.023 42.3342,272.523 88.5,249C 96.2906,245.438 104.291,242.438 112.5,240C 114.208,236.707 115.208,233.207 115.5,229.5C 103.852,226.501 95.5184,219.501 90.5,208.5C 72.8874,208.363 61.3874,200.029 56,183.5C 55.5001,167.503 55.3334,151.503 55.5,135.5C 47.9807,135.823 42.814,132.49 40,125.5C 39.3333,116.167 39.3333,106.833 40,97.5C 43.0854,90.2064 48.5854,86.8731 56.5,87.5C 62.7977,52.7491 82.131,28.2491 114.5,14C 122.163,11.3384 129.829,9.17171 137.5,7.5 Z M 150.5,23.5 C 153.43,24.299 156.43,24.6323 159.5,24.5C 159.5,45.5 159.5,66.5 159.5,87.5C 154.167,87.5 148.833,87.5 143.5,87.5C 143.5,66.5 143.5,45.5 143.5,24.5C 146.059,24.8016 148.393,24.4682 150.5,23.5 Z M 126.5,27.5 C 127.497,47.3264 127.83,67.3264 127.5,87.5C 109.497,87.6666 91.4969,87.4999 73.5,87C 80.8118,57.8593 98.4785,38.026 126.5,27.5 Z M 175.5,27.5 C 204.155,37.6554 222.155,57.4887 229.5,87C 211.503,87.4999 193.503,87.6666 175.5,87.5C 175.5,67.5 175.5,47.5 175.5,27.5 Z M 55.5,103.5 C 119.5,103.5 183.5,103.5 247.5,103.5C 247.5,108.833 247.5,114.167 247.5,119.5C 183.5,119.5 119.5,119.5 55.5,119.5C 55.5,114.167 55.5,108.833 55.5,103.5 Z M 71.5,135.5 C 76.8333,135.5 82.1667,135.5 87.5,135.5C 87.5,138.167 87.5,140.833 87.5,143.5C 81.7839,142.909 76.6172,144.242 72,147.5C 71.5012,143.514 71.3345,139.514 71.5,135.5 Z M 103.5,135.5 C 135.5,135.5 167.5,135.5 199.5,135.5C 199.667,154.17 199.5,172.836 199,191.5C 198.037,202.795 192.204,210.295 181.5,214C 161.5,216 141.5,216 121.5,214C 110.796,210.295 104.963,202.795 104,191.5C 103.5,172.836 103.333,154.17 103.5,135.5 Z M 215.5,135.5 C 220.833,135.5 226.167,135.5 231.5,135.5C 231.823,139.226 231.489,142.893 230.5,146.5C 225.777,144.118 220.777,143.118 215.5,143.5C 215.5,140.833 215.5,138.167 215.5,135.5 Z M 82.5,160.5 C 84.1667,160.5 85.8333,160.5 87.5,160.5C 87.5,170.5 87.5,180.5 87.5,190.5C 75.6113,189.081 70.778,182.415 73,170.5C 75.0223,165.98 78.189,162.647 82.5,160.5 Z M 215.5,160.5 C 224.827,161.16 229.827,166.16 230.5,175.5C 229.827,184.84 224.827,189.84 215.5,190.5C 215.5,180.5 215.5,170.5 215.5,160.5 Z M 311.5,167.5 C 348.833,167.5 386.167,167.5 423.5,167.5C 423.5,204.833 423.5,242.167 423.5,279.5C 407.5,279.5 391.5,279.5 375.5,279.5C 375.5,268.833 375.5,258.167 375.5,247.5C 354.167,247.5 332.833,247.5 311.5,247.5C 311.5,220.833 311.5,194.167 311.5,167.5 Z M 133.5,231.5 C 145.5,231.5 157.5,231.5 169.5,231.5C 171.208,236.772 172.375,242.105 173,247.5C 166.081,258.339 158.914,269.006 151.5,279.5C 144.086,269.006 136.919,258.339 130,247.5C 130.625,242.105 131.792,236.772 133.5,231.5 Z M 110.5,258.5 C 111.831,311.335 111.831,364.335 110.5,417.5C 86.7527,413.923 73.9194,400.257 72,376.5C 71.5002,365.505 71.3335,354.505 71.5,343.5C 66.1667,343.5 60.8333,343.5 55.5,343.5C 55.3334,358.17 55.5001,372.837 56,387.5C 60.7047,409.204 73.538,423.704 94.5,431C 105.177,433.503 115.844,436.003 126.5,438.5C 127.495,444.128 127.829,449.794 127.5,455.5C 112.804,455.777 98.1375,455.277 83.5,454C 45.6014,444.43 25.6014,420.097 23.5,381C 25.9793,321.063 54.9793,280.23 110.5,258.5 Z M 191.5,258.5 C 222.73,269.232 246.563,288.898 263,317.5C 263.833,336.842 263.666,356.175 262.5,375.5C 251.677,351.221 241.51,326.554 232,301.5C 231.439,300.978 230.772,300.645 230,300.5C 225.036,302.21 220.202,304.21 215.5,306.5C 224.797,329.42 233.797,352.42 242.5,375.5C 232.833,375.5 223.167,375.5 213.5,375.5C 214.557,391.85 220.39,406.184 231,418.5C 231.5,441.498 231.667,464.498 231.5,487.5C 218.167,487.5 204.833,487.5 191.5,487.5C 191.5,482.167 191.5,476.833 191.5,471.5C 210.025,469.457 217.858,459.124 215,440.5C 211.204,429.198 203.371,423.532 191.5,423.5C 191.5,368.5 191.5,313.5 191.5,258.5 Z M 279.5,263.5 C 306.167,263.5 332.833,263.5 359.5,263.5C 359.5,300.833 359.5,338.167 359.5,375.5C 332.833,375.5 306.167,375.5 279.5,375.5C 279.5,338.167 279.5,300.833 279.5,263.5 Z M 127.5,275.5 C 132.188,281.693 136.521,288.193 140.5,295C 136.348,300.489 132.181,305.989 128,311.5C 127.5,299.505 127.333,287.505 127.5,275.5 Z M 174.5,275.5 C 175.66,287.326 175.826,299.326 175,311.5C 170.819,305.989 166.652,300.489 162.5,295C 166.641,288.544 170.641,282.044 174.5,275.5 Z M 375.5,295.5 C 396.833,295.5 418.167,295.5 439.5,295.5C 439.5,322.167 439.5,348.833 439.5,375.5C 418.167,375.5 396.833,375.5 375.5,375.5C 375.5,348.833 375.5,322.167 375.5,295.5 Z M 150.5,309.5 C 159.125,318.638 167.292,328.305 175,338.5C 175.667,361.833 175.667,385.167 175,408.5C 158.296,403.553 144.463,407.72 133.5,421C 131.527,421.495 129.527,421.662 127.5,421.5C 127.333,393.831 127.5,366.165 128,338.5C 135.739,328.939 143.239,319.272 150.5,309.5 Z M 234.5,392.5 C 317.666,391.334 400.999,391.168 484.5,392C 477.323,407.849 465.323,417.849 448.5,422C 431.852,423.686 415.186,423.853 398.5,422.5C 395.215,415.38 389.882,410.547 382.5,408C 374.833,407.833 367.167,407.667 359.5,407.5C 350.761,407.377 342.095,407.877 333.5,409C 327.639,412.028 323.306,416.528 320.5,422.5C 303.814,423.853 287.148,423.686 270.5,422C 253.825,417.821 241.825,407.987 234.5,392.5 Z M 158.5,423.5 C 171.295,421.383 176.961,426.716 175.5,439.5C 180.844,439.334 186.177,439.501 191.5,440C 198.592,442.159 200.258,446.493 196.5,453C 194.913,453.862 193.246,454.529 191.5,455C 175.503,455.5 159.503,455.667 143.5,455.5C 143.334,448.825 143.5,442.158 144,435.5C 148.202,430.439 153.036,426.439 158.5,423.5 Z M 343.5,423.5 C 354.172,423.333 364.839,423.5 375.5,424C 380.706,424.738 383.039,427.738 382.5,433C 379.592,449.233 369.925,456.233 353.5,454C 340.087,449.33 334.92,440.164 338,426.5C 339.876,425.391 341.709,424.391 343.5,423.5 Z M 247.5,431.5 C 257.377,437.235 268.044,439.902 279.5,439.5C 279.5,455.5 279.5,471.5 279.5,487.5C 268.833,487.5 258.167,487.5 247.5,487.5C 247.5,468.833 247.5,450.167 247.5,431.5 Z M 71.5,468.5 C 75.0315,469.757 78.6982,470.591 82.5,471C 92.1609,471.5 101.828,471.666 111.5,471.5C 111.5,476.833 111.5,482.167 111.5,487.5C 98.1667,487.5 84.8333,487.5 71.5,487.5C 71.5,481.167 71.5,474.833 71.5,468.5 Z M 127.5,471.5 C 143.5,471.5 159.5,471.5 175.5,471.5C 175.5,476.833 175.5,482.167 175.5,487.5C 159.5,487.5 143.5,487.5 127.5,487.5C 127.5,482.167 127.5,476.833 127.5,471.5 Z"/>
  </g>
  <g>
    <path style="opacity:1" fill="#9f1127" d="M 327.5,183.5 C 332.833,183.5 338.167,183.5 343.5,183.5C 343.5,188.833 343.5,194.167 343.5,199.5C 338.167,199.5 332.833,199.5 327.5,199.5C 327.5,194.167 327.5,188.833 327.5,183.5 Z"/>
  </g>
  <g>
    <path style="opacity:1" fill="#9f1127" d="M 359.5,183.5 C 364.833,183.5 370.167,183.5 375.5,183.5C 375.5,188.833 375.5,194.167 375.5,199.5C 370.167,199.5 364.833,199.5 359.5,199.5C 359.5,194.167 359.5,188.833 359.5,183.5 Z"/>
  </g>
  <g>
    <path style="opacity:1" fill="#9f1127" d="M 391.5,183.5 C 396.833,183.5 402.167,183.5 407.5,183.5C 407.5,188.833 407.5,194.167 407.5,199.5C 402.167,199.5 396.833,199.5 391.5,199.5C 391.5,194.167 391.5,188.833 391.5,183.5 Z"/>
  </g>
  <g>
    <path style="opacity:1" fill="#9f1127" d="M 327.5,215.5 C 332.833,215.5 338.167,215.5 343.5,215.5C 343.5,220.833 343.5,226.167 343.5,231.5C 338.167,231.5 332.833,231.5 327.5,231.5C 327.5,226.167 327.5,220.833 327.5,215.5 Z"/>
  </g>
  <g>
    <path style="opacity:1" fill="#9f1127" d="M 359.5,215.5 C 364.833,215.5 370.167,215.5 375.5,215.5C 375.5,220.833 375.5,226.167 375.5,231.5C 370.167,231.5 364.833,231.5 359.5,231.5C 359.5,226.167 359.5,220.833 359.5,215.5 Z"/>
  </g>
  <g>
    <path style="opacity:1" fill="#9f1127" d="M 391.5,215.5 C 396.833,215.5 402.167,215.5 407.5,215.5C 407.5,220.833 407.5,226.167 407.5,231.5C 402.167,231.5 396.833,231.5 391.5,231.5C 391.5,226.167 391.5,220.833 391.5,215.5 Z"/>
  </g>
  <g>
    <path style="opacity:1" fill="#9f1127" d="M 391.5,247.5 C 396.833,247.5 402.167,247.5 407.5,247.5C 407.5,252.833 407.5,258.167 407.5,263.5C 402.167,263.5 396.833,263.5 391.5,263.5C 391.5,258.167 391.5,252.833 391.5,247.5 Z"/>
  </g>
  <g>
    <path style="opacity:1" fill="#9f1127" d="M 295.5,279.5 C 300.833,279.5 306.167,279.5 311.5,279.5C 311.5,306.167 311.5,332.833 311.5,359.5C 306.167,359.5 300.833,359.5 295.5,359.5C 295.5,332.833 295.5,306.167 295.5,279.5 Z"/>
  </g>
  <g>
    <path style="opacity:1" fill="#9f1127" d="M 327.5,279.5 C 332.833,279.5 338.167,279.5 343.5,279.5C 343.5,306.167 343.5,332.833 343.5,359.5C 338.167,359.5 332.833,359.5 327.5,359.5C 327.5,332.833 327.5,306.167 327.5,279.5 Z"/>
  </g>
  <g>
    <path style="opacity:1" fill="#9f1127" d="M 391.5,311.5 C 402.167,311.5 412.833,311.5 423.5,311.5C 423.5,316.833 423.5,322.167 423.5,327.5C 412.833,327.5 402.167,327.5 391.5,327.5C 391.5,322.167 391.5,316.833 391.5,311.5 Z"/>
  </g>
  <g>
    <path style="opacity:1" fill="#9f1127" d="M 391.5,343.5 C 402.167,343.5 412.833,343.5 423.5,343.5C 423.5,348.833 423.5,354.167 423.5,359.5C 412.833,359.5 402.167,359.5 391.5,359.5C 391.5,354.167 391.5,348.833 391.5,343.5 Z"/>
  </g>
</svg>
