<?xml version="1.0" standalone="no"?>
<!DOCTYPE svg PUBLIC "-//W3C//DTD SVG 20010904//EN"
 "http://www.w3.org/TR/2001/REC-SVG-20010904/DTD/svg10.dtd">
<svg version="1.0" xmlns="http://www.w3.org/2000/svg"
 width="512.000000pt" height="512.000000pt" viewBox="0 0 512.000000 512.000000"
 preserveAspectRatio="xMidYMid meet">

<g transform="translate(0.000000,512.000000) scale(0.100000,-0.100000)"
fill="#9f1127" stroke="none">
<path d="M145 5105 c-51 -18 -120 -91 -134 -141 -7 -26 -11 -212 -11 -542 l0
-503 25 -24 24 -25 2511 0 2511 0 24 25 25 24 0 502 c0 368 -3 513 -12 543
-17 55 -91 131 -143 145 -28 8 -724 11 -2410 11 -2018 -1 -2376 -3 -2410 -15z
m4800 -160 c23 -22 25 -31 25 -125 l0 -100 -2410 0 -2410 0 0 100 c0 94 2 103
25 125 l24 25 2361 0 2361 0 24 -25z m25 -650 l0 -275 -125 0 -125 0 0 75 c0
67 -3 79 -25 100 -13 14 -36 25 -50 25 -14 0 -37 -11 -50 -25 -22 -21 -25 -33
-25 -100 l0 -75 -155 0 -155 0 0 115 c0 82 -4 124 -15 144 -23 46 -66 54 -109
20 -26 -20 -26 -22 -26 -150 l0 -129 -160 0 -160 0 0 79 c0 74 -2 81 -26 100
-70 55 -124 5 -124 -114 l0 -65 -155 0 -155 0 0 125 c0 120 -1 127 -25 150
-31 32 -69 32 -100 0 -24 -23 -25 -30 -25 -150 l0 -125 -155 0 -155 0 0 65 c0
119 -54 169 -124 114 -24 -19 -26 -26 -26 -100 l0 -79 -160 0 -160 0 0 129 c0
128 0 130 -26 150 -43 34 -86 26 -109 -20 -11 -20 -15 -62 -15 -144 l0 -115
-155 0 -155 0 0 75 c0 67 -3 79 -25 100 -31 32 -69 32 -100 0 -22 -21 -25 -33
-25 -100 l0 -75 -155 0 -155 0 0 115 c0 82 -4 124 -15 144 -23 46 -66 54 -109
20 -26 -20 -26 -22 -26 -150 l0 -129 -160 0 -160 0 0 79 c0 74 -2 81 -26 100
-70 55 -124 5 -124 -114 l0 -65 -155 0 -155 0 0 125 c0 120 -1 127 -25 150
-13 14 -36 25 -50 25 -14 0 -37 -11 -50 -25 -24 -23 -25 -30 -25 -150 l0 -125
-125 0 -125 0 0 275 0 275 2410 0 2410 0 0 -275z"/>
<path d="M287 3539 c-103 -24 -206 -111 -254 -214 l-28 -60 0 -1490 0 -1490
28 -60 c37 -79 114 -156 191 -192 l61 -28 2275 0 2275 0 65 31 c82 39 144 101
184 184 l31 65 0 1490 0 1490 -31 65 c-40 83 -102 145 -184 184 l-65 31 -207
3 -207 4 -26 -26 -25 -25 0 -226 0 -225 -1810 0 -1810 0 0 225 0 226 -25 24
c-24 25 -25 25 -212 24 -103 -1 -205 -5 -226 -10z m313 -1418 l0 -1279 -163
-4 c-159 -3 -164 -4 -225 -34 l-62 -31 0 1216 c0 842 3 1228 11 1255 14 50 83
123 134 141 26 9 85 14 173 15 l132 0 0 -1279z m4215 1268 c52 -14 126 -90
143 -145 9 -32 12 -323 12 -1257 l0 -1216 -62 32 c-60 32 -63 32 -225 35
l-163 4 0 1279 0 1279 128 0 c70 0 145 -5 167 -11z m-445 -1569 l0 -1081 25
-24 c24 -25 26 -25 213 -25 188 0 190 0 243 -28 39 -20 62 -41 84 -77 26 -42
30 -59 34 -138 2 -54 -2 -107 -10 -135 -17 -60 -87 -133 -145 -150 -60 -18
-4448 -18 -4508 0 -58 18 -131 91 -146 147 -7 25 -10 86 -8 136 3 81 6 97 33
140 22 36 45 57 84 77 53 28 55 28 243 28 187 0 189 0 213 25 l25 24 0 1081 0
1080 1810 0 1810 0 0 -1080z"/>
<path d="M1145 2635 c-51 -18 -120 -91 -134 -141 -15 -54 -15 -1284 0 -1339
14 -52 90 -126 145 -143 31 -9 204 -12 683 -12 l641 0 0 -172 c0 -281 20 -343
129 -400 l53 -28 630 0 c468 0 641 3 672 12 54 16 128 90 144 144 17 60 17
1879 0 1938 -17 55 -91 131 -143 145 -28 8 -448 11 -1410 11 -1155 -1 -1376
-3 -1410 -15z m2242 -202 c19 -111 90 -240 182 -332 91 -91 222 -163 334 -183
l67 -13 0 -377 0 -378 -518 0 c-508 0 -519 0 -540 -20 -30 -28 -30 -82 0 -110
21 -20 32 -20 540 -20 l518 0 0 -200 c0 -200 0 -201 -25 -225 l-24 -25 -619 0
c-608 0 -619 0 -640 20 l-22 21 0 732 c0 439 -4 746 -10 766 -23 82 -117 82
-140 0 -6 -19 -10 -125 -10 -236 l0 -203 -83 0 c-268 0 -415 -160 -417 -452
l0 -48 -390 0 -391 0 -24 25 c-24 23 -25 30 -25 150 l0 125 101 0 c130 0 172
13 229 70 63 62 70 94 70 305 0 210 -7 242 -70 306 -56 58 -92 69 -227 69
l-103 0 0 125 c0 120 1 127 25 150 l24 25 1089 0 1088 0 11 -67z m558 42 c25
-24 25 -25 25 -221 l0 -197 -40 7 c-181 29 -366 218 -397 404 l-6 32 197 0
c196 0 197 0 221 -25z m-2570 -450 c25 -24 25 -27 25 -200 0 -173 0 -176 -25
-200 -22 -23 -31 -25 -125 -25 l-100 0 0 225 0 225 100 0 c94 0 103 -2 125
-25z m1105 -700 l0 -175 -171 0 -171 0 4 104 c3 97 5 107 33 147 19 27 50 54
84 71 46 24 65 28 137 28 l84 0 0 -175z"/>
<path d="M2813 2130 c-31 -28 -36 -81 -31 -338 3 -225 4 -228 31 -284 30 -61
65 -96 131 -131 36 -19 60 -22 191 -25 141 -3 151 -2 173 18 30 28 30 82 0
110 -19 18 -35 20 -146 20 -94 0 -132 4 -158 16 -60 29 -64 46 -64 306 0 239
-6 290 -37 314 -26 19 -66 17 -90 -6z"/>
<path d="M3195 825 c-14 -13 -25 -36 -25 -50 0 -14 11 -37 25 -50 21 -22 33
-25 100 -25 67 0 79 3 100 25 14 13 25 36 25 50 0 14 -11 37 -25 50 -21 22
-33 25 -100 25 -67 0 -79 -3 -100 -25z"/>
<path d="M3595 825 c-14 -13 -25 -36 -25 -50 0 -14 11 -37 25 -50 21 -22 33
-25 100 -25 67 0 79 3 100 25 14 13 25 36 25 50 0 14 -11 37 -25 50 -21 22
-33 25 -100 25 -67 0 -79 -3 -100 -25z"/>
</g>
</svg>
