<?xml version="1.0" standalone="no"?>
<!DOCTYPE svg PUBLIC "-//W3C//DTD SVG 20010904//EN"
 "http://www.w3.org/TR/2001/REC-SVG-20010904/DTD/svg10.dtd">
<svg version="1.0" xmlns="http://www.w3.org/2000/svg"
 width="640.000000pt" height="412.000000pt" viewBox="0 0 640.000000 412.000000"
 preserveAspectRatio="xMidYMid meet">

<g transform="translate(0.000000,412.000000) scale(0.100000,-0.100000)"
fill="#9f1127" stroke="none">
<path d="M2205 4114 c-746 -49 -1393 -308 -1799 -721 -277 -281 -407 -590
-393 -933 18 -423 275 -814 730 -1109 37 -24 67 -48 67 -53 0 -14 -86 -144
-137 -208 -133 -163 -311 -335 -551 -530 -89 -72 -122 -105 -122 -123 0 -11
59 -14 119 -6 322 44 878 255 1330 503 l117 65 140 -28 c260 -53 394 -65 694
-66 352 0 566 25 865 102 747 191 1301 621 1481 1147 53 154 72 382 44 536
-115 657 -803 1196 -1750 1371 -226 42 -621 67 -835 53z"/>
<path d="M5056 2378 c-2 -7 -9 -51 -16 -98 -24 -170 -112 -392 -224 -565 -246
-378 -700 -705 -1221 -880 -60 -20 -117 -39 -125 -42 -21 -7 71 -89 190 -168
429 -287 1046 -379 1630 -244 l135 31 116 -70 c138 -84 360 -196 484 -245 187
-74 370 -113 370 -78 0 8 -47 55 -105 105 -235 202 -355 359 -375 491 -6 39
-5 41 44 78 104 79 224 224 284 342 54 108 72 190 72 330 0 108 -4 143 -23
205 -119 379 -524 680 -1070 794 -138 29 -161 31 -166 14z"/>
</g>
</svg>
